# xmcd
#
# Track frame offsets: 
#        150
#        12267
#        28550
#        47028
#        62242
#        76530
#        90874
#        100827
#        123128
#        138430
#
# Disc length: 2106 seconds
#
# Revision: 1
# Processed by: cddbd v1.5.2PL0 Copyright (c) Steve Scherf et al.
# Submitted via: ExactAudioCopy v1.3
#
DISCID=6b08380a
DTITLE=Dale Ann Bradley - The Hard Way
DYEAR=2019
DGENRE=Bluegrass
TTITLE0=Hard Way Every Time
TTITLE1=Pretty, Dark Hearted Emma Brown
TTITLE2=Wheel in the Sky
TTITLE3=The Redbird River
TTITLE4=Boat on the Ocean
TTITLE5=One Good Wiper Blade
TTITLE6=The Likes Of You
TTITLE7=Ode to Billie Joe
TTITLE8=Because He Loved Me
TTITLE9=Ripple
EXTD=
EXTT0=
EXTT1=
EXTT2=
EXTT3=
EXTT4=
EXTT5=
EXTT6=
EXTT7=
EXTT8=
EXTT9=
PLAYORDER=
